<svg width="30" height="30" viewBox="0 0 30 30" fill="none" xmlns="http://www.w3.org/2000/svg">
<path d="M25.0284 12.5H24.8845C25.0581 11.9291 25.0974 11.3259 24.9993 10.7373C24.9012 10.1488 24.6684 9.59082 24.319 9.1069C23.9696 8.62299 23.513 8.22621 22.9849 7.94749C22.4567 7.66876 21.8713 7.51562 21.2741 7.5H3.75426C-3.06723 7.965 1.25142 18.3138 3.01717 21.14C3.80903 22.3382 4.8887 23.3191 6.15765 23.9934C7.4266 24.6677 8.84441 25.0137 10.2817 25H14.7455C16.1595 25.0129 17.5549 24.6775 18.8082 24.0234C20.0616 23.3693 21.1342 22.4168 21.9311 21.25H25.0284C31.0527 21.1338 32.2353 12.2775 25.0284 12.5ZM14.7455 22.5H10.2817C9.26073 22.5138 8.25264 22.2717 7.34954 21.7958C6.44645 21.32 5.67717 20.6257 5.11205 19.7763C4.43128 19.125 0.618202 10 3.75426 10H21.2741C21.4463 9.99944 21.6167 10.0354 21.7739 10.1054C21.9312 10.1754 22.0718 10.278 22.1864 10.4062C22.3084 10.5405 22.4006 10.699 22.4569 10.8713C22.5132 11.0437 22.5323 11.226 22.5131 11.4062C21.8085 16.73 20.4832 22.2638 14.7455 22.5ZM25.0284 18.75H23.2614C23.7758 17.54 24.1755 16.2845 24.4553 15C25.9682 14.8988 27.6414 15.27 27.5312 16.4287C27.4906 17.0621 27.2085 17.6557 26.7429 18.0875C26.2773 18.5193 25.6637 18.7564 25.0284 18.75ZM11.2941 3.75V1.25C11.2941 0.918479 11.4259 0.600537 11.6606 0.366117C11.8953 0.131696 12.2136 0 12.5455 0C12.8774 0 13.1957 0.131696 13.4304 0.366117C13.6651 0.600537 13.7969 0.918479 13.7969 1.25V3.75C13.7969 4.08152 13.6651 4.39946 13.4304 4.63388C13.1957 4.8683 12.8774 5 12.5455 5C12.2136 5 11.8953 4.8683 11.6606 4.63388C11.4259 4.39946 11.2941 4.08152 11.2941 3.75ZM16.2997 3.75V1.25C16.2997 0.918479 16.4316 0.600537 16.6663 0.366117C16.901 0.131696 17.2193 0 17.5512 0C17.8831 0 18.2014 0.131696 18.4361 0.366117C18.6707 0.600537 18.8026 0.918479 18.8026 1.25V3.75C18.8026 4.08152 18.6707 4.39946 18.4361 4.63388C18.2014 4.8683 17.8831 5 17.5512 5C17.2193 5 16.901 4.8683 16.6663 4.63388C16.4316 4.39946 16.2997 4.08152 16.2997 3.75ZM6.28839 3.75V1.25C6.28839 0.918479 6.42023 0.600537 6.65492 0.366117C6.88961 0.131696 7.20791 0 7.53981 0C7.8717 0 8.19001 0.131696 8.4247 0.366117C8.65938 0.600537 8.79123 0.918479 8.79123 1.25V3.75C8.79123 4.08152 8.65938 4.39946 8.4247 4.63388C8.19001 4.8683 7.8717 5 7.53981 5C7.20791 5 6.88961 4.8683 6.65492 4.63388C6.42023 4.39946 6.28839 4.08152 6.28839 3.75ZM25.0284 28.75C25.0284 29.0815 24.8966 29.3995 24.6619 29.6339C24.4272 29.8683 24.1089 30 23.777 30H1.25142C0.919523 30 0.601219 29.8683 0.366533 29.6339C0.131846 29.3995 0 29.0815 0 28.75C0 28.4185 0.131846 28.1005 0.366533 27.8661C0.601219 27.6317 0.919523 27.5 1.25142 27.5H23.777C24.1089 27.5 24.4272 27.6317 24.6619 27.8661C24.8966 28.1005 25.0284 28.4185 25.0284 28.75Z" fill="#D4A76A"/>
</svg>
